<svg xmlns="http://www.w3.org/2000/svg" viewBox="0 0 48 48"><defs><style>.a{fill:#418fde;}</style></defs><path class="a" d="M21.99976,11.85254V14h-1a1,1,0,0,0-1,1v3a1,1,0,0,0,1,1h10a1.00005,1.00005,0,0,0,1-1V15a1.00005,1.00005,0,0,0-1-1h-1V11.85254A11.86611,11.86611,0,0,0,18.14722,0H0V8H18.14722A3.857,3.857,0,0,1,21.99976,11.85254Z"/><circle class="a" cx="35.5" cy="29.5" r="2.5"/><circle class="a" cx="32.5" cy="22.5" r="1.5"/><path class="a" d="M41.50342,35c-.023,0-.04517.00317-.06824.00342C41.42358,35.00317,41.4126,35,41.40088,35h-8.907a2.4939,2.4939,0,1,0,0,4.98779h2.69629L35.188,40H36.5a1.5,1.5,0,0,1,0,3H30.11523A1.72844,1.72844,0,0,1,29,42.58154l-9.26453-9.76513a2.78917,2.78917,0,0,0-4.1278.20337,2.86959,2.86959,0,0,0,.27014,3.8247l10.5924,10.33887A2.79086,2.79086,0,0,0,28.44165,48H41.42932c.02417,0,.04651-.00659.07068-.00708h.00342a6.49646,6.49646,0,1,0,0-12.99292Z"/><circle class="a" cx="17" cy="28" r="2"/><path class="a" d="M25.79272,22.1073c-.80493,1.09644-3.67529,5.1449-3.67529,6.995a3.88236,3.88236,0,1,0,7.76465,0c0-1.85009-2.87036-5.89855-3.67529-6.995A.25352.25352,0,0,0,25.79272,22.1073Z"/></svg>